<?xml version="1.0" encoding="UTF-8" standalone="no"?><!DOCTYPE svg PUBLIC "-//W3C//DTD SVG 1.1//EN" "http://www.w3.org/Graphics/SVG/1.1/DTD/svg11.dtd"><svg width="100%" height="100%" viewBox="0 0 1036 953" version="1.1" xmlns="http://www.w3.org/2000/svg" xmlns:xlink="http://www.w3.org/1999/xlink" xml:space="preserve" xmlns:serif="http://www.serif.com/" style="fill-rule:evenodd;clip-rule:evenodd;stroke-linejoin:round;stroke-miterlimit:2;"><g><path d="M842.136,194.409c-177.288,2.495 -310.5,4.796 -376.679,3.819c-10.936,-0.163 -37.352,-0.344 -64.274,14.643c-47.294,26.325 -58.499,76.38 -60.201,84.612c-20.376,62.185 -40.756,124.369 -61.132,186.554c-8.975,26.543 -35.119,91.47 -95.186,117.967c-20.102,8.869 -41.983,12.541 -54.509,14.643c-41.702,6.998 -77.009,4.181 -100.611,0.543c53.515,-164.881 107.028,-329.765 160.544,-494.647c11.792,-18.468 28.402,-39.571 51.639,-59.117c74.85,-62.959 164.281,-64.18 195.419,-63.127c199.385,0 398.773,0.003 598.154,0.003c-1.05,14.158 -8.49,95.97 -78.566,150.987c-45.712,35.893 -94.449,41.827 -114.598,43.12Z" style="fill:#176cb5;"/><path d="M511.572,618.251c-57.585,0.634 -115.169,1.265 -172.754,1.899c21.426,-64.27 42.851,-128.544 64.277,-192.815c2.81,-10.626 12.604,-42.12 43.391,-66.712c33.483,-26.747 69.776,-27.743 80.272,-27.659c56.576,0.362 113.152,0.722 169.728,1.084c-22.95,66.169 -45.896,132.341 -68.846,198.51c-3.176,10.106 -13.721,39.073 -43.391,61.289c-30.472,22.818 -62.2,24.342 -72.677,24.404Z" style="fill:#2cc5f4;"/><path d="M193.167,758.702c177.289,-2.495 310.501,-4.797 376.68,-3.82c10.936,0.163 37.352,0.344 64.273,-14.642c47.295,-26.326 58.5,-76.381 60.202,-84.613c20.376,-62.184 40.756,-124.369 61.132,-186.553c8.975,-26.544 35.119,-91.47 95.186,-117.967c20.102,-8.869 41.983,-12.542 54.509,-14.643c41.702,-6.998 77.008,-4.182 100.611,-0.544c-53.516,164.881 -107.028,329.766 -160.544,494.647c-11.792,18.468 -28.402,39.572 -51.639,59.118c-74.85,62.959 -164.281,64.18 -195.419,63.127c-199.385,0 -398.773,-0.003 -598.158,-0.003c1.055,-14.159 8.497,-95.97 78.569,-150.988c45.712,-35.893 94.45,-41.826 114.598,-43.119Z" style="fill:#176cb5;"/></g></svg>